# xmcd CD database file
#
# Track frame offsets:
#	150
#	28406
#	54421
#	77173
#	95546
#	126666
#	143529
#	163038
#	185293
#	215294
#
# Disc length: 3294 seconds
#
# Revision: 0
# Processed by: cddbd v1.5.1PL0 Copyright (c) Steve Scherf et al.
# Submitted via: CDex 1.51
#
DISCID=8a0cdc0a
DTITLE=Dixie Demons - Live at the Rex
DYEAR=2005
DGENRE=Jazz
TTITLE0=Running Wild
TTITLE1=I've found a new Baby
TTITLE2=When you're Smiling
TTITLE3=Avalon
TTITLE4=Caravan
TTITLE5=Dinah
TTITLE6=Blues My Naught Sweeties Gives To Me
TTITLE7=If I had You
TTITLE8=Shine
TTITLE9=The Sheik of Araby
EXTD=YEAR: 2005
EXTT0=
EXTT1=
EXTT2=
EXTT3=
EXTT4=
EXTT5=
EXTT6=
EXTT7=
EXTT8=
EXTT9=
PLAYORDER=
